inDegrees=yes
name=ik_S54_A01_T03
DataType=double
version=3
OpenSimVersion=4.3-2021-08-27-4bc7ad9
endheader
time	pelvis_tilt	pelvis_list	pelvis_rotation	pelvis_tx	pelvis_ty	pelvis_tz	hip_flexion_r	hip_adduction_r	hip_rotation_r	knee_angle_r	knee_angle_r_beta	ankle_angle_r	subtalar_angle_r	mtp_angle_r	hip_flexion_l	hip_adduction_l	hip_rotation_l	knee_angle_l	knee_angle_l_beta	ankle_angle_l	subtalar_angle_l	mtp_angle_l	lumbar_extension	lumbar_bending	lumbar_rotation	arm_flex_r	arm_add_r	arm_rot_r	elbow_flex_r	pro_sup_r	wrist_flex_r	wrist_dev_r	arm_flex_l	arm_add_l	arm_rot_l	elbow_flex_l	pro_sup_l	wrist_flex_l	wrist_dev_l
23.45999999999959	-1.000495463433942	-1.574759614692261	-82.25462466460532	0	0.9399999999999999	0	3.590283287589118	3.8030830364432	-8.548037268917041	8.00276412829731	0.139674583299282	0	0	0	8.805192047646804	-3.869523059251244	-10.36174295291494	23.12154219209962	0.4035470393909256	0	0	0	0	0	0	41.15311862138782	-41.15311862138776	4.935270626137909	84.48317347576078	85.06472964568124	0	0	41.15311862138782	-41.15311862138776	4.935270626137909	84.48317347576078	85.06472964566919	0	0
23.47999999999959	-0.9873533349415983	-1.55141001745354	-83.29860495557065	0	0.9399999999999999	0	3.747034178436508	3.723977660903363	-7.717531072831217	7.955111686327112	0.1388428912902865	0	0	0	8.536717101337679	-3.15357934700032	-6.994884178446919	22.17469277640414	0.387021399566455	0	0	0	0	0	0	41.1615581100158	-41.16155811001575	4.935522094034705	84.48518134086858	85.06447817779471	0	0	41.1615581100158	-41.16155811001575	4.935522094034705	84.48518134086858	85.0644781777827	0	0
23.49999999999959	-0.9610561948360981	-1.612912006609399	-84.28915188058379	0	0.9399999999999999	0	3.741176735631131	3.626820288497856	-6.895034121508043	7.836329412457822	0.1367697495182617	0	0	0	8.118314238916629	-2.525327282663364	-4.054489675880768	20.87529977067138	0.3643427133390328	0	0	0	0	0	0	41.169050438583	-41.16905043858295	4.935746270557345	84.48697129646186	85.06425400128121	0	0	41.169050438583	-41.16905043858295	4.935746270557345	84.48697129646186	85.06425400126925	0	0
23.51999999999959	-0.8180924143155721	-1.77731325119787	-85.91586821270452	0	0.9399999999999999	0	3.442182286075095	3.594099814712917	-5.266746252008318	7.527803286058124	0.1313849527841628	0	0	0	7.439163404586574	-2.024194181494701	-3.362847275135009	19.13083274460271	0.3338960200416608	0	0	0	0	0	0	41.17548719880002	-41.17548719879997	4.935937707724977	84.4884998411284	85.06406256412141	0	0	41.17548719880002	-41.17548719879997	4.935937707724977	84.4884998411284	85.06406256410949	0	0
23.53999999999959	-0.7537419705500614	-1.764577154358594	-86.23654017811775	0	0.9399999999999999	0	3.522709494136524	3.308855902353161	-4.898724918830863	7.435907175821018	0.1297810630907497	0	0	0	6.845273881419028	-1.667626800351396	-2.817785323616387	17.72185943394186	0.3093047966979039	0	0	0	0	0	0	41.17610966017503	-41.17610966017498	4.935958683228169	84.48866732344311	85.06404158861911	0	0	41.17610966017503	-41.17610966017498	4.935958683228169	84.48866732344311	85.0640415886072	0	0
23.55999999999959	-0.768025635112673	-1.804475609949955	-86.81239850379085	0	0.9399999999999999	0	3.477091163375827	3.27325498944388	-4.082775019584496	7.012532510849408	0.1223917812174671	0	0	0	5.028134486721414	-2.107495247014057	-8.078951026320141	16.07038853743507	0.280481192052998	0	0	0	0	0	0	41.1811997046625	-41.18119970466245	4.936115131912722	84.48991650344756	85.06388513994101	0	0	41.1811997046625	-41.18119970466245	4.936115131912722	84.48991650344756	85.06388513992903	0	0
23.57999999999959	-0.765325826698576	-1.886562285461741	-87.32320529553409	0	0.9399999999999999	0	3.362742307364317	3.156943611383221	-3.479405284743708	6.821581666169521	0.1190590602683388	0	0	0	4.544076666272669	-2.409525715148197	-7.064168614495054	14.86798931287262	0.2594953666609565	0	0	0	0	0	0	41.18206184368982	-41.18206184368977	4.93614417803968	84.49014842693909	85.0638560938153	0	0	41.18206184368982	-41.18206184368977	4.93614417803968	84.49014842693909	85.06385609380332	0	0
23.59999999999959	-0.7203371199317788	-1.950718974128624	-87.68663276691905	0	0.9399999999999999	0	3.223964621613424	2.989543468087978	-3.093385499516003	6.736271301536057	0.117570113519408	0	0	0	3.897898184522836	-2.211203820688913	-5.033071567178349	12.71394806275055	0.2219002546225517	0	0	0	0	0	0	41.18142054152186	-41.1814205415218	4.936135727251892	84.49008095864929	85.06386454460285	0	0	41.18142054152186	-41.1814205415218	4.936135727251892	84.49008095864929	85.0638645445908	0	0
